<?xml version="1.0" standalone="no"?>
<!DOCTYPE svg PUBLIC "-//W3C//DTD SVG 20010904//EN"
 "http://www.w3.org/TR/2001/REC-SVG-20010904/DTD/svg10.dtd">
<svg version="1.0" xmlns="http://www.w3.org/2000/svg"
 width="150.000000pt" height="150.000000pt" viewBox="0 0 150.000000 150.000000"
 preserveAspectRatio="xMidYMid meet">

<g transform="translate(0.000000,150.000000) scale(0.100000,-0.100000)"
fill="#000000" stroke="none">
<path d="M623 1489 c-149 -25 -305 -111 -416 -228 -179 -190 -247 -450 -183
-698 61 -234 258 -447 482 -522 283 -94 580 -20 785 195 207 218 264 519 150
802 -67 167 -238 337 -409 407 -117 47 -282 65 -409 44z m246 -185 c105 -24
185 -73 266 -165 17 -18 -1 -5 -39 30 -119 109 -199 135 -458 145 -107 4 -128
2 -128 -10 0 -8 5 -14 10 -14 6 0 10 -7 10 -15 0 -9 9 -15 23 -15 12 -1 81 -5
152 -9 188 -12 246 -41 310 -151 22 -39 25 -41 20 -15 -5 23 -4 26 4 14 17
-26 36 -160 24 -167 -5 -4 -12 -14 -15 -22 -2 -8 -7 18 -11 58 -8 92 -36 146
-100 189 -61 41 -99 52 -209 60 -74 5 -88 4 -88 -9 0 -12 18 -16 83 -21 150
-10 261 -74 286 -162 16 -57 14 -128 -4 -151 -15 -18 -16 -18 -14 6 1 14 0 45
-1 70 l-2 45 -10 -60 c-13 -80 -28 -94 -28 -26 0 75 -19 129 -60 172 -40 42
-89 59 -168 59 -75 0 -64 -23 15 -32 107 -12 172 -58 193 -137 15 -56 1 -169
-20 -156 -4 2 -5 26 -3 52 13 135 -57 213 -191 213 l-46 0 -1 -117 c-1 -65 -3
-109 -6 -98 -3 11 -9 24 -14 29 -5 6 -10 64 -10 130 -2 143 -16 113 -18 -36 0
-53 -5 -99 -10 -103 -5 -3 -12 25 -16 62 -18 171 -22 184 -24 66 -1 -92 -4
-113 -16 -113 -7 0 -19 -8 -24 -17 -8 -14 -10 -9 -11 25 0 26 -4 41 -10 37 -7
-4 -10 62 -10 191 l0 197 153 -7 c83 -4 181 -14 216 -22z m-475 -878 l26 -34
-25 -16 c-23 -15 -25 -14 -43 12 -11 15 -24 37 -31 50 -11 20 -10 22 17 22 22
0 37 -9 56 -34z m692 7 c0 -10 4 -29 8 -43 l7 -25 -20 25 c-14 18 -17 29 -10
42 12 22 15 23 15 1z m-483 -190 c-13 -2 -33 -2 -45 0 -13 2 -3 4 22 4 25 0
35 -2 23 -4z m460 0 c-13 -2 -33 -2 -45 0 -13 2 -3 4 22 4 25 0 35 -2 23 -4z"/>
</g>
</svg>
